<svg xmlns="http://www.w3.org/2000/svg" width="266.759" height="105.002" viewBox="0 0 266.759 105.002">
  <g id="Group_27648" data-name="Group 27648" transform="translate(-108.834 -73.909)">
    <g id="Group_14807" data-name="Group 14807" transform="translate(285.396 154.991)">
      <path id="Path_7541" data-name="Path 7541" d="M471.3,261.691a.3.3,0,0,1-.34-.34v-1.97a.3.3,0,0,1,.34-.34h4.077a4.9,4.9,0,0,0,1.258-.153,2.548,2.548,0,0,0,1-.51,2.334,2.334,0,0,0,.663-.986,4.53,4.53,0,0,0,.238-1.58v-.884H474.9a9.52,9.52,0,0,1-2.7-.356,4.779,4.779,0,0,1-3.347-3.279,10.412,10.412,0,0,1-.441-3.262,9.859,9.859,0,0,1,.526-3.381,6.66,6.66,0,0,1,1.427-2.379,5.734,5.734,0,0,1,2.089-1.394,6.936,6.936,0,0,1,2.515-.459,6.278,6.278,0,0,1,4.723,1.75q1.7,1.75,1.7,5.657v4.451h2.345a1.548,1.548,0,0,1,1.019.289,1.213,1.213,0,0,1,.34.968q0,.884-.323,1.138a1.679,1.679,0,0,1-1.036.255h-2.345v.816a7.705,7.705,0,0,1-.425,2.718,4.556,4.556,0,0,1-3.041,2.888,8.084,8.084,0,0,1-2.412.34Zm3.669-18.62a3.185,3.185,0,0,0-2.7,1.359,5.927,5.927,0,0,0-1,3.6,4.512,4.512,0,0,0,.969,3.33,4.027,4.027,0,0,0,2.871.918h3.432v-4.451a6.3,6.3,0,0,0-.832-3.5A3.038,3.038,0,0,0,474.973,243.071Z" transform="translate(-468.415 -237.923)" fill="#322763"/>
      <path id="Path_7542" data-name="Path 7542" d="M498.768,258.224a1.782,1.782,0,0,1-1.019-.238,1.1,1.1,0,0,1-.34-.952,1.583,1.583,0,0,1,.323-1.155,1.47,1.47,0,0,1,1.036-.306h2.31a1.7,1.7,0,0,0,1.24-.391,1.984,1.984,0,0,0,.39-1.41v-6.539a.3.3,0,0,1,.34-.34h2.175a.3.3,0,0,1,.34.34v6.029A1.968,1.968,0,0,0,506.4,255a3.835,3.835,0,0,0,2.226.578h.407a1.544,1.544,0,0,1,1.019.289,1.211,1.211,0,0,1,.34.968q0,.884-.323,1.138a1.68,1.68,0,0,1-1.037.255h-.747a3.934,3.934,0,0,1-1.9-.441,2.971,2.971,0,0,1-1.257-1.325q-.849,1.767-3.533,1.767Z" transform="translate(-483.172 -241.218)" fill="#322763"/>
      <rect id="Rectangle_6575" data-name="Rectangle 6575" width="2.99" height="3.16" rx="0.692" transform="translate(16.309 21.686) rotate(-45)" fill="#322763"/>
      <rect id="Rectangle_6576" data-name="Rectangle 6576" width="2.99" height="3.16" rx="0.692" transform="translate(20.455 21.686) rotate(-45)" fill="#322763"/>
      <path id="Path_7543" data-name="Path 7543" d="M529.713,235.455l-1.634,1.634a.3.3,0,0,0,0,.48l1.755,1.756a.3.3,0,0,0,.481,0l1.634-1.634a.3.3,0,0,0,0-.48l-1.755-1.755A.3.3,0,0,0,529.713,235.455Z" transform="translate(-498.722 -235.335)" fill="#322763"/>
      <path id="Path_7544" data-name="Path 7544" d="M565.534,242.17a7.33,7.33,0,0,0-9.514,0q-1.733,1.746-1.731,5.654v.7a6.607,6.607,0,0,0,.032.661,5.115,5.115,0,0,1-.186,1.481,2.765,2.765,0,0,1-.494.952,1.781,1.781,0,0,1-.68.507,1.914,1.914,0,0,1-.747.154c-4.329,0-8.658-.071-12.988-.056-2.728.009-5.455.031-8.182.051l-.59,0h-.621a3.828,3.828,0,0,1-2.224-.58,1.961,1.961,0,0,1-.834-1.731v-6.006a.3.3,0,0,0-.34-.34h-2.175a.3.3,0,0,0-.34.34v6.513a2.01,2.01,0,0,1-.389,1.414,1.715,1.715,0,0,1-1.241.389h-2.138a1.472,1.472,0,0,0-1.038.3,1.573,1.573,0,0,0-.322,1.155,1.1,1.1,0,0,0,.34.952,1.785,1.785,0,0,0,1.02.24h2.65q2.685,0,3.534-1.767a2.958,2.958,0,0,0,1.255,1.323,3.934,3.934,0,0,0,1.9.444h1.04l.667,0,.99.007c4.335.029,8.672.039,13.007.051,1.509,0,3.018-.016,4.527-.037a18.444,18.444,0,0,0,4.323-.317,3.077,3.077,0,0,0,1.835-1.377,5.012,5.012,0,0,0,2.075,1.445,7.934,7.934,0,0,0,2.818.458,8.138,8.138,0,0,0,2.7-.421,5.059,5.059,0,0,0,2.039-1.309,5.952,5.952,0,0,0,1.291-2.279,10.621,10.621,0,0,0,.462-3.33Q567.269,243.917,565.534,242.17Zm-1.989,9.224a3.983,3.983,0,0,1-5.536,0,5.855,5.855,0,0,1-.865-3.57,6.079,6.079,0,0,1,.865-3.5,3.673,3.673,0,0,1,5.536,0,6.078,6.078,0,0,1,.87,3.5A5.852,5.852,0,0,1,563.545,251.394Z" transform="translate(-494.057 -237.921)" fill="#322763"/>
    </g>
    <g id="Group_14817" data-name="Group 14817" transform="translate(108.834 73.909)">
      <g id="Group_14815" data-name="Group 14815" transform="translate(16.083 0)">
        <g id="Group_14809" data-name="Group 14809" transform="translate(0 29.026)">
          <g id="Group_14808" data-name="Group 14808">
            <path id="Path_7545" data-name="Path 7545" d="M164.713,133.023a22.028,22.028,0,0,0-16.569,6.808q-6.558,6.809-6.557,17.519,0,10.913,6.407,17.369t16.819,6.457a29.991,29.991,0,0,0,12.414-2.9v.2q0,8.808-7.408,12.864t-22.525,4.055l.678,4.945a2.713,2.713,0,0,0,2.749,2.337q34.914-.761,34.916-23.8V155.448q0-10.11-5.806-16.268T164.713,133.023Zm12.514,37.542a33.833,33.833,0,0,1-11.313,1.9q-7.608.2-12.012-3.8T149.5,156.95a15.089,15.089,0,0,1,4.1-11.012,13.807,13.807,0,0,1,10.311-4.2,12.5,12.5,0,0,1,9.61,4,14.733,14.733,0,0,1,3.7,10.412Z" transform="translate(-141.587 -133.023)" fill="#322763"/>
          </g>
        </g>
        <g id="Group_14811" data-name="Group 14811" transform="translate(54.659 29.026)">
          <g id="Group_14810" data-name="Group 14810">
            <path id="Path_7546" data-name="Path 7546" d="M276.03,133.023a22.029,22.029,0,0,0-16.569,6.808Q252.9,146.64,252.9,157.35q0,10.913,6.407,17.369t16.818,6.457a29.992,29.992,0,0,0,12.414-2.9v.2q0,8.808-7.408,12.864t-22.525,4.055l.678,4.945a2.713,2.713,0,0,0,2.749,2.337q34.915-.761,34.916-23.8V155.448q0-10.11-5.806-16.268T276.03,133.023Zm12.514,37.542a33.833,33.833,0,0,1-11.313,1.9q-7.608.2-12.012-3.8t-4.405-11.713a15.088,15.088,0,0,1,4.105-11.012,13.808,13.808,0,0,1,10.311-4.2,12.5,12.5,0,0,1,9.61,4,14.734,14.734,0,0,1,3.7,10.412Z" transform="translate(-252.904 -133.023)" fill="#322763"/>
          </g>
        </g>
        <g id="Group_14813" data-name="Group 14813" transform="translate(109.318 28.626)">
          <g id="Group_14812" data-name="Group 14812">
            <path id="Path_7547" data-name="Path 7547" d="M499.072,138.765a21.812,21.812,0,0,0-16.118-6.557q-10.112,0-16.668,6.607t-6.557,16.718q0,6.907,4.5,16.217H408.268V155.033q0-10.11-5.806-16.268t-15.116-6.157a22.028,22.028,0,0,0-16.568,6.807q-6.558,6.809-6.557,17.519,0,10.913,6.407,17.369t17.018,6.457h12.013q-1,7.407-8.409,10.812t-21.324,3.4l.678,4.945a2.711,2.711,0,0,0,2.745,2.337q33.079-.722,34.819-21.5h69.38q13.112,0,20.572-6.808t7.458-18.821A22.305,22.305,0,0,0,499.072,138.765Zm-99.313,33.087q-7.808.2-11.011.2-7.61,0-12.114-4t-4.505-11.513a15.086,15.086,0,0,1,4.1-11.012,13.807,13.807,0,0,1,10.311-4.2,12.414,12.414,0,0,1,9.561,3.954q3.653,3.956,3.653,10.462Zm92.205-4.4q-5.106,4.305-13.715,4.3h-5.206q-5.007-8.908-5.005-16.117a14.747,14.747,0,0,1,4.2-10.461,13.52,13.52,0,0,1,10.211-4.455,14.209,14.209,0,0,1,14.616,14.716Q497.069,163.143,491.964,167.447Z" transform="translate(-364.22 -132.208)" fill="#322763"/>
          </g>
        </g>
        <g id="Group_14814" data-name="Group 14814" transform="translate(211.554)">
          <path id="Path_7548" data-name="Path 7548" d="M577.729,95.015l-5.3,5.3,5.745,5.745a2.29,2.29,0,0,0,3.238,0l5.745-5.745-5.3-5.3A2.922,2.922,0,0,0,577.729,95.015Z" transform="translate(-572.431 -84.216)" fill="#009fca"/>
          <path id="Path_7549" data-name="Path 7549" d="M604.132,79.207l-5.3-5.3-5.3,5.3a2.923,2.923,0,0,0,0,4.133l5.3,5.3,5.3-5.3A2.922,2.922,0,0,0,604.132,79.207Z" transform="translate(-582.738 -73.909)" fill="#009fca"/>
          <path id="Path_7550" data-name="Path 7550" d="M617.431,95.015a2.922,2.922,0,0,0-4.133,0l-5.3,5.3,5.745,5.745a2.29,2.29,0,0,0,3.238,0l5.745-5.745Z" transform="translate(-590.535 -84.216)" fill="#009fca"/>
        </g>
      </g>
      <g id="Group_14816" data-name="Group 14816" transform="translate(0 10.928)">
        <path id="Path_7551" data-name="Path 7551" d="M117.029,124.008c-10.768-2.772-7.829-13.482-7.829-13.482,5.871,7.883,10.656,5.382,10.656,5.382-13.1-7.612-10.046-19.743-10.046-19.743,7.9,10.624,18.047,7.8,18.047,7.8-.189,4.041,2.82,6.391,5.452,5.357s-1.035-5.357-1.035-5.357c10.729.841,15.771,3.87,17.268,4.961-.2,0-.39-.011-.588-.011q-13.289,0-21.138,8.012t-7.857,20.178a34.152,34.152,0,0,0,.39,5.188c-7.388-9.854-6.693-14.589-6.693-14.589,2.61,2.827,7.286,1.955,7.015-.818S117.029,124.008,117.029,124.008Z" transform="translate(-108.834 -96.165)" fill="#009fca"/>
      </g>
    </g>
  </g>
</svg>
