<svg xmlns="http://www.w3.org/2000/svg" viewBox="0 0 128.72 131.4"><defs><style>.cls-1{fill:#332763;}.cls-2{fill:#1cadd3;}</style></defs><g id="Layer_2" data-name="Layer 2"><g id="Layer_1-2" data-name="Layer 1"><g id="Group_22824" data-name="Group 22824"><g id="Group_22823" data-name="Group 22823"><g id="Group_22822" data-name="Group 22822"><path id="Path_14895" data-name="Path 14895" class="cls-1" d="M113.71,0a4.4,4.4,0,0,0-4.1,2.77L64.77,113.06,19.73,2.77A4.42,4.42,0,0,0,15.63,0H0L54.2,131.4h20L128.72,0Z"/></g></g></g><path id="Path_14899" data-name="Path 14899" class="cls-2" d="M80.26,27.78,92.74,0H77.6a4.77,4.77,0,0,0-4.36,2.82L67.69,15.19Z"/><path id="Path_14900" data-name="Path 14900" class="cls-2" d="M60,15.2,54.4,2.83A4.76,4.76,0,0,0,50.05,0H34.91L47.39,27.78Z"/><path id="Path_14901" data-name="Path 14901" class="cls-2" d="M63.83,23.81,51.25,36.38l12.58,28,12.57-28Z"/></g></g></svg>